<?xml version="1.0" encoding="UTF-8" standalone="no"?>
<!-- Created with Inkscape (http://www.inkscape.org/) -->

<svg
   width="512"
   height="512"
   viewBox="0 0 135.46666 135.46667"
   version="1.1"
   id="svg1"
   xml:space="preserve"
   xmlns:xlink="http://www.w3.org/1999/xlink"
   xmlns="http://www.w3.org/2000/svg"
   xmlns:svg="http://www.w3.org/2000/svg"><defs
     id="defs1"><linearGradient
       id="linearGradient8979"><stop
         style="stop-color:#2c61a7;stop-opacity:1;"
         offset="0"
         id="stop8980" /><stop
         style="stop-color:#a0eed2;stop-opacity:1;"
         offset="1"
         id="stop8981" /></linearGradient><linearGradient
       id="linearGradient8976"><stop
         style="stop-color:#ffffff;stop-opacity:1;"
         offset="0"
         id="stop8976" /><stop
         style="stop-color:#e4fe7f;stop-opacity:1;"
         offset="0.22690086"
         id="stop8979" /><stop
         style="stop-color:#e8fe56;stop-opacity:1;"
         offset="0.74927813"
         id="stop8978" /><stop
         style="stop-color:#ffffff;stop-opacity:1;"
         offset="1"
         id="stop8977" /></linearGradient><linearGradient
       id="linearGradient8973"><stop
         style="stop-color:#a5f995;stop-opacity:1;"
         offset="0"
         id="stop8973" /><stop
         style="stop-color:#b9fe98;stop-opacity:1;"
         offset="1"
         id="stop8974" /></linearGradient><linearGradient
       id="linearGradient8968"><stop
         style="stop-color:#5bcb81;stop-opacity:1;"
         offset="0"
         id="stop8967" /><stop
         style="stop-color:#a8f47d;stop-opacity:1;"
         offset="1"
         id="stop8968" /></linearGradient><linearGradient
       id="linearGradient8966"><stop
         style="stop-color:#0a428c;stop-opacity:1;"
         offset="0"
         id="stop8965" /><stop
         style="stop-color:#9bf78d;stop-opacity:1;"
         offset="1"
         id="stop8966" /></linearGradient><linearGradient
       id="linearGradient8963"><stop
         style="stop-color:#021542;stop-opacity:1;"
         offset="0.2213667"
         id="stop8963" /><stop
         style="stop-color:#1689b8;stop-opacity:1;"
         offset="1"
         id="stop8964" /></linearGradient><linearGradient
       xlink:href="#linearGradient8963"
       id="linearGradient8964"
       x1="31.261721"
       y1="68.144646"
       x2="-31.261721"
       y2="30.576773"
       gradientUnits="userSpaceOnUse" /><linearGradient
       xlink:href="#linearGradient8966"
       id="linearGradient8965"
       gradientUnits="userSpaceOnUse"
       x1="18.33683"
       y1="80.69664"
       x2="-18.108191"
       y2="17.945753" /><linearGradient
       xlink:href="#linearGradient8968"
       id="linearGradient8965-0"
       gradientUnits="userSpaceOnUse"
       x1="17.322851"
       y1="76.641747"
       x2="-16.736622"
       y2="20.757265" /><linearGradient
       xlink:href="#linearGradient8973"
       id="linearGradient8974"
       x1="-36.470959"
       y1="49.360714"
       x2="36.470959"
       y2="49.360714"
       gradientUnits="userSpaceOnUse" /><linearGradient
       xlink:href="#linearGradient8976"
       id="linearGradient8977"
       x1="74.554169"
       y1="80.822144"
       x2="82.94101"
       y2="55.23777"
       gradientUnits="userSpaceOnUse"
       gradientTransform="translate(-10.757598,-0.280633)" /><linearGradient
       xlink:href="#linearGradient8979"
       id="linearGradient8981"
       x1="18.33683"
       y1="80.69664"
       x2="-18.108191"
       y2="17.945753"
       gradientUnits="userSpaceOnUse" /><style
       id="style6">.st0{fill:none}</style></defs><g
     id="layer1"
     transform="translate(-243.96362,6.7351921)"><g
       id="g8979"
       transform="matrix(1.3751644,0,0,1.3751644,-25.411132,-38.074473)"><path
         style="display:inline;fill:url(#linearGradient8964);stroke-width:0.264583"
         id="path8963"
         d="m 36.470959,49.360714 -18.23548,31.584777 h -36.470958 l -18.23548,-31.584777 18.23548,-31.584777 36.470958,0 z"
         transform="matrix(0,0.96739292,-0.9378045,0,114.02403,67.733332)" /><path
         id="path8963-3"
         style="display:inline;fill:url(#linearGradient8965);stroke:url(#linearGradient8981);stroke-width:0.380107;stroke-dasharray:none"
         d="m -36.470752,49.360716 18.235078,31.584882 H 18.235675 L 36.470753,49.360716 18.235675,17.775834 h -36.471349 z m 4.222064,1.369149 15.522196,-0.04715 0.130687,-2.972238 -15.57667,0.09467 14.872193,-25.692848 8.1693052,14.264154 2.3009731,-1.430112 -7.6968503,-14.163683 29.818813,0.0074 -7.9434919,13.24639 2.2028484,1.793979 7.9960635,-13.718134 14.872193,25.692848 -16.425538,0.0382 0.126309,2.933506 16.375442,-0.04699 L 17.623591,76.422711 8.8821316,61.9671 7.0184354,63.356063 15.156801,77.91038 l -29.818218,0.0074 7.8155246,-14.384939 -2.0859962,-1.604127 -8.4446054,14.493992 z m 6.545956,3.078426 8.985954,15.655711 1.827318,-3.272872 -7.269381,-12.393333 z m 0.07621,-9.081572 3.54389,0.01049 7.269382,-12.393333 -1.827319,-3.272872 z m 16.5518499,29.149055 18.1285,-0.06975 -1.8731652,-3.059289 -14.4339705,-0.07901 z m 0.134563,-49.051104 1.8213644,3.208674 14.4345658,-0.07901 1.8731652,-3.05929 z m 24.0004501,7.51921 7.269382,12.393333 3.54389,-0.01049 -8.985953,-15.655711 z m 0.07621,33.84725 1.827318,3.272872 8.985954,-15.655711 -3.543891,-0.01049 z"
         transform="matrix(0,0.86791092,-0.83714988,0,109.05565,67.733332)" /><path
         id="path8963-3-0"
         style="display:inline;fill:url(#linearGradient8965-0);stroke:url(#linearGradient8974);stroke-width:1.19514;stroke-dasharray:none"
         d="M -36.470799,49.360715 -18.23601,80.945173 H 18.236012 L 28.714203,62.794863 23.09015,61.204887 15.260226,74.394522 h -29.966843 l -14.984033,-25.236075 1.809914,-3.049375 -4.698932,-3.488475 z m 8.163554,-14.139525 5.936908,1.607899 7.66372,-12.907996 12.811998,0.0869 0.2184897,6.918664 5.7794971,4.373827 0.052575,-17.784932 -22.3919528,0.260703 z m 39.987517,-11.305043 4.050053,0.0049 14.512714,25.237354 -2.021335,3.403983 4.387299,3.488475 3.861801,-6.69019 -17.598777,-31.555492 -3.59869,-0.0869 z"
         transform="matrix(0,0.42285328,-0.40366718,0,87.658633,67.733332)" /><path
         style="fill:#5dd870;fill-opacity:1;stroke:url(#linearGradient8977);stroke-width:0.499999;stroke-dasharray:none"
         d="m 63.656917,80.775533 10.196333,-14.63969 -5.42557,0.04677 3.601455,-11.22532 -10.196332,14.592916 5.378799,0.187089 z"
         id="path8976" /></g></g><g
     id="layer2"
     transform="translate(-243.96362,6.7351921)"><use
       x="0"
       y="0"
       xlink:href="#g8979"
       id="use1"
       transform="matrix(1.3315933,0,0,1.2815207,221.5037,-9.5751942)" /></g></svg>
